# xmcd
#
# Track frame offsets: 
#        150
#        14431
#        33192
#        55877
#        72490
#        90426
#        104598
#        124725
#        142271
#        154167
#        170064
#        187644
#        204310
#        215697
#        229996
#
# Disc length: 3249 seconds
#
# Revision: 0
# Processed by: cddbd v1.5.2PL0 Copyright (c) Steve Scherf et al.
# Submitted via: ExactAudioCopy v0.99pb5
#
DISCID=d70caf0f
DTITLE=Various Artist - Coração Sertanejo
DYEAR=2010
DGENRE=Country
TTITLE0=Amor Não Vai Faltar/ Bruno and Marrone
TTITLE1=Meu Eu em Você - Victor and Léo
TTITLE2=Noite Enluarada - Fernando and Sorocaba
TTITLE3=Como é Bom Te Amar - Luis Guilherme and Nadielly
TTITLE4=Meu Anjo (Angel) - Edson and Hudson
TTITLE5=Não Vou Mais Chorar - João Neto and Frederico
TTITLE6=Apaga Tudo - Alvaro and Daniel
TTITLE7=Se Você Não Me Ama - Guilherme and Santiago
TTITLE8=Acabou para Mim - Marcos and Belutti
TTITLE9=Amor Sem Fim - Nechivile
TTITLE10=Coisa de Deus - Rick and Renner
TTITLE11=Esta Noite Foi Maravilhosa (Wonderful Tonight) - Leonardo
TTITLE12=Um Dia Eu te Amei - Tato and Ed Reis
TTITLE13=E Deixe o Tempo Ver - Humberto and Ronaldo
TTITLE14=Cara a Cara - Diogo and Danilo
EXTD=
EXTT0=
EXTT1=
EXTT2=
EXTT3=
EXTT4=
EXTT5=
EXTT6=
EXTT7=
EXTT8=
EXTT9=
EXTT10=
EXTT11=
EXTT12=
EXTT13=
EXTT14=
PLAYORDER=
